<svg width="598" height="211" viewBox="0 0 598 211" fill="none" xmlns="http://www.w3.org/2000/svg">
<g clip-path="url(#clip0_4691_134728)">
<path d="M0.488281 157.088H7.69899V102.932H65.6291V95.7198H7.69899V43.6421H72.962V36.5518H0.488281V157.088ZM119.648 67.1138C103.638 67.4805 91.9054 75.4266 86.1613 89.8519V67.236H78.9506V157.088H86.1613V108.434C87.8723 87.6514 99.8494 74.5709 119.648 74.5709V67.1138ZM160.224 67.1138C134.681 67.1138 115.982 85.9399 115.982 112.101C115.982 138.629 134.803 157.211 160.224 157.211C185.889 157.211 204.466 138.629 204.466 112.101C204.466 85.9399 185.889 67.1138 160.224 67.1138ZM160.224 150.487C138.714 150.487 122.948 134.839 122.948 112.223C122.948 89.6074 138.592 73.9596 160.224 73.9596C181.978 73.9596 197.5 89.6074 197.5 112.223C197.377 134.839 181.856 150.487 160.224 150.487ZM260.807 67.1138C242.841 67.4805 230.131 75.4266 224.142 90.2186V67.236H216.932V157.088H224.142V108.434C225.731 87.7737 238.442 74.8154 259.096 74.3264C277.551 74.3264 288.428 85.2065 288.428 103.666V157.088H295.639V102.321C295.639 80.4388 282.684 67.1138 260.807 67.1138ZM354.18 144.986C349.535 148.286 344.158 150.12 339.025 150.12C329.737 150.242 324.726 144.13 324.726 131.294V75.7934H355.28V69.5587H324.726V47.3096H317.882V69.5587H304.805V75.7934H317.882V132.394C317.882 149.264 325.459 157.577 338.169 157.333C344.891 157.333 351.247 154.888 356.991 150.976L354.18 144.986Z" fill="#7A7D7E"/>
<path d="M9.28837 183.494C5.86634 183.494 3.66646 184.472 1.09994 186.184L2.32209 188.384C4.39975 186.917 6.47742 186.061 8.67729 186.061C12.2215 186.061 14.0548 187.773 14.0548 190.707V191.929H7.45514C2.81095 191.929 0 194.13 0 197.675C0 201.098 2.68874 203.787 6.84406 203.787C10.0217 203.787 12.5882 202.687 14.177 200.609V203.665H17.1102V190.462C16.8657 186.061 14.177 183.494 9.28837 183.494ZM14.0548 196.697C13.3215 199.509 10.755 201.22 7.33292 201.22C4.52197 201.22 2.68874 199.753 2.68874 197.553C2.68874 195.352 4.39976 194.374 7.82179 194.374H14.0548V196.697ZM28.8428 200.487L22.4876 183.616H19.31L27.254 203.543H30.3094L38.1312 183.616H35.198L28.8428 200.487ZM208.133 183.494C204.589 183.494 201.9 185.083 200.433 187.895V183.616H197.5V211H200.433V199.264C201.9 202.076 204.589 203.665 208.255 203.665C213.877 203.665 217.788 199.509 217.788 193.641C217.788 187.65 213.755 183.494 208.133 183.494ZM207.644 200.976C203.489 200.976 200.433 197.919 200.433 193.518C200.433 189.24 203.366 186.061 207.644 186.061C211.799 186.061 214.732 189.24 214.732 193.518C214.732 197.919 211.799 200.976 207.644 200.976ZM230.498 183.494C227.076 183.494 224.876 184.472 222.31 186.184L223.532 188.384C225.61 186.917 227.687 186.061 229.887 186.061C233.431 186.061 235.265 187.773 235.265 190.707V191.929H228.665C224.021 191.929 221.21 194.13 221.21 197.675C221.21 201.098 223.899 203.787 228.054 203.787C231.232 203.787 233.798 202.687 235.387 200.609V203.665H238.32V190.462C238.076 186.061 235.387 183.494 230.498 183.494ZM235.265 196.697C234.531 199.509 231.965 201.22 228.543 201.22C225.732 201.22 223.899 199.753 223.899 197.553C223.899 195.352 225.61 194.374 229.032 194.374H235.265V196.697V196.697ZM250.175 200.12L243.575 183.616H240.52L248.831 203.42L247.975 205.254C247.12 207.088 245.897 208.066 244.309 208.066C243.331 208.066 242.353 207.821 241.498 207.088L240.276 209.533C241.498 210.511 242.842 211 244.431 211C247.12 211 249.197 209.411 250.419 206.354L259.586 183.494H256.53L250.175 200.12ZM288.795 183.494C285.006 183.494 282.195 185.206 280.973 188.751C280.118 185.45 277.551 183.494 273.763 183.494C270.218 183.494 267.53 184.961 266.185 188.139V183.616H263.252V203.543H266.185V193.763C266.185 189.484 268.629 186.55 272.785 186.428C276.329 186.428 278.284 188.506 278.284 192.051V203.543H281.218V193.763C281.218 189.484 283.662 186.55 287.695 186.428C291.117 186.428 293.195 188.506 293.195 192.051V203.543H296.128V191.196C296.25 186.428 293.561 183.494 288.795 183.494ZM310.672 183.494C304.927 183.494 300.772 187.65 300.772 193.518C300.772 199.509 304.805 203.543 310.672 203.543C313.971 203.543 316.782 202.32 318.738 200.242L317.149 198.531C315.56 200.12 313.483 200.976 310.916 200.976C307.005 200.976 304.194 198.531 303.705 194.619H319.96C320.327 187.895 317.149 183.494 310.672 183.494ZM303.705 192.296C304.194 188.506 306.883 186.061 310.672 186.061C314.582 186.061 317.149 188.506 317.393 192.296H303.705ZM335.726 183.494C332.059 183.494 329.371 184.961 328.026 188.017V183.616H325.093V203.543H328.026V192.785C328.393 188.995 330.837 186.428 334.748 186.428C338.292 186.428 340.37 188.506 340.37 192.051V203.543H343.303V191.196C343.303 186.428 340.614 183.494 335.726 183.494ZM359.436 199.753C358.336 200.487 357.236 200.731 356.258 200.731C354.547 200.731 353.569 199.875 353.569 197.43V186.55H359.924V184.105H353.569V178.849H350.636V184.105H347.703V186.55H350.636V197.919C350.636 201.831 352.836 203.665 355.769 203.665C357.358 203.665 358.824 203.054 360.291 202.198L359.436 199.753Z" fill="#7A7D7E"/>
<path d="M357.602 103.177C357.602 138.384 384.856 164.179 422.254 164.179C439.241 164.179 461.24 157.699 474.562 148.898V99.9984H440.708V127.626C434.964 129.949 429.098 131.538 425.064 131.538C409.543 131.538 398.177 119.68 398.177 103.299C398.177 87.1623 409.421 75.3043 424.698 75.3043C434.597 75.3043 446.086 80.1942 454.152 87.8958L476.395 61.0013C463.685 49.8767 443.397 42.6641 424.82 42.6641C385.833 42.6641 357.602 68.2139 357.602 103.177Z" fill="#0089AE"/>
<path d="M466.496 102.077C466.496 137.529 494.117 163.201 532.248 163.201C570.379 163.201 598 137.285 598 102.077C598 66.992 570.379 41.5645 532.248 41.5645C494.117 41.5645 466.496 66.8698 466.496 102.077ZM507.194 102.322C507.194 86.0627 518.926 74.3269 532.859 74.3269C546.547 74.3269 557.424 86.0627 557.424 102.322C557.424 118.581 546.547 130.561 532.859 130.561C519.049 130.561 507.194 118.581 507.194 102.322Z" fill="#0089AE"/>
<path fill-rule="evenodd" clip-rule="evenodd" d="M576.245 14.7923L530.659 92.1753L493.383 13.2031L531.881 30.6846L576.245 14.7923Z" fill="#69C6E6"/>
<path fill-rule="evenodd" clip-rule="evenodd" d="M560.113 46.8207L530.537 92.0524L531.759 30.4395L560.113 46.8207Z" fill="#0089AE"/>
<path fill-rule="evenodd" clip-rule="evenodd" d="M588.344 0L560.113 46.9432L531.881 30.4397L588.344 0Z" fill="#4FBBCA"/>
<path d="M51.209 203.909H60.0085V195.23H71.7412V188.506H60.0085V183.861H72.5967V177.259H51.209V203.909ZM99.2396 186.794C99.2396 180.682 95.0843 177.259 87.8736 177.259H75.041V203.787H83.8405V196.941H87.1403L90.3179 203.787H100.217L94.9621 195.107C97.7731 193.518 99.2396 190.706 99.2396 186.794ZM87.9958 190.34H83.9627V183.983H87.9958C89.9513 183.983 90.929 185.083 90.929 187.039C90.929 189.117 89.8291 190.34 87.9958 190.34ZM115.861 177.015C107.428 177.015 101.317 182.638 101.317 190.584C101.317 198.53 107.428 204.276 115.861 204.276C124.294 204.276 130.405 198.53 130.405 190.584C130.405 182.76 124.294 177.015 115.861 177.015ZM115.983 196.941C112.928 196.941 110.239 194.252 110.239 190.584C110.239 186.917 112.806 184.35 115.983 184.35C119.039 184.35 121.483 186.917 121.483 190.584C121.361 194.252 118.916 196.941 115.983 196.941ZM150.692 190.951L140.182 177.259H132.849V203.787H140.793V190.217L151.303 203.787H158.636V177.259H150.692V190.951V190.951ZM160.714 177.259V184.227H168.291V203.909H177.091V184.227H184.668V177.259H160.714Z" fill="#0089AE"/>
</g>
<defs>
<clipPath id="clip0_4691_134728">
<rect width="598" height="211" fill="white"/>
</clipPath>
</defs>
</svg>
