<svg width="241" height="165" viewBox="0 0 241 165" fill="none" xmlns="http://www.w3.org/2000/svg">
<path d="M0 103.177C0 138.384 27.254 164.179 64.6519 164.179C81.6399 164.179 103.639 157.699 116.96 148.898V99.9984H83.1065V127.626C77.3624 129.949 71.496 131.538 67.4629 131.538C51.9415 131.538 40.5755 119.68 40.5755 103.299C40.5755 87.1623 51.8193 75.3043 67.0963 75.3043C76.9957 75.3043 88.484 80.1942 96.5502 87.8958L118.793 61.0013C106.083 49.8767 85.7952 42.6641 67.2185 42.6641C28.2318 42.6641 0 68.2139 0 103.177Z" fill="#0089AE"/>
<path d="M108.895 102.077C108.895 137.529 136.515 163.201 174.646 163.201C212.778 163.201 240.398 137.285 240.398 102.077C240.398 66.992 212.778 41.5645 174.646 41.5645C136.515 41.5645 108.895 66.8698 108.895 102.077ZM149.592 102.322C149.592 86.0627 161.325 74.3269 175.257 74.3269C188.946 74.3269 199.823 86.0627 199.823 102.322C199.823 118.581 188.946 130.561 175.257 130.561C161.447 130.561 149.592 118.581 149.592 102.322Z" fill="#0089AE"/>
<path fill-rule="evenodd" clip-rule="evenodd" d="M218.643 14.7923L173.057 92.1753L135.781 13.2031L174.279 30.6846L218.643 14.7923Z" fill="#69C6E6"/>
<path fill-rule="evenodd" clip-rule="evenodd" d="M202.512 46.8207L172.936 92.0524L174.158 30.4395L202.512 46.8207Z" fill="#0089AE"/>
<path fill-rule="evenodd" clip-rule="evenodd" d="M230.743 0L202.511 46.9432L174.279 30.4397L230.743 0Z" fill="#4FBBCA"/>
</svg>
